<svg xmlns="http://www.w3.org/2000/svg" version="1.1" xmlns:xlink="http://www.w3.org/1999/xlink" xmlns:svgjs="http://svgjs.dev/svgjs" width="1500" height="1500" viewBox="0 0 1500 1500"><rect width="1500" height="1500" fill="#ffffff"></rect><g transform="matrix(0.6666666666666666,0,0,0.6666666666666666,248.44248201856482,189.33333333333348)"><svg viewBox="0 0 321 360" data-background-color="#ffffff" preserveAspectRatio="xMidYMid meet" height="1682" width="1500" xmlns="http://www.w3.org/2000/svg" xmlns:xlink="http://www.w3.org/1999/xlink"><g id="tight-bounds" transform="matrix(1,0,0,1,0.4999632720407021,0)"><svg viewBox="0 0 320 360" height="360" width="320"><g><svg></svg></g><g><svg viewBox="0 0 320 360" height="360" width="320"><g><path transform="translate(-32.1528,-12.1528) scale(3.84303,3.84303)" d="M88.492 50l1.711-2.963c2.946-5.102 1.198-11.626-3.904-14.572l-2.963-1.711v-3.422c0-5.891-4.776-10.667-10.667-10.667h-3.422l-1.711-2.963c-2.946-5.102-9.47-6.85-14.572-3.904l-2.964 1.71-2.963-1.711c-5.102-2.945-11.626-1.197-14.572 3.905l-1.711 2.963h-3.422c-5.891 0-10.667 4.776-10.667 10.667v3.422l-2.963 1.711c-5.102 2.946-6.85 9.47-3.904 14.572l1.71 2.963-1.711 2.963c-2.945 5.102-1.197 11.626 3.905 14.572l2.963 1.711v3.422c0 5.891 4.776 10.667 10.667 10.667h3.422l1.711 2.963c2.946 5.102 9.47 6.85 14.572 3.904l2.963-1.71 2.963 1.711c5.102 2.946 11.626 1.198 14.572-3.904l1.711-2.963h3.422c5.891 0 10.667-4.776 10.667-10.667v-3.422l2.963-1.711c5.102-2.946 6.85-9.47 3.904-14.572zM85.832 33.273c2.252 1.3 3.862 3.399 4.535 5.91 0.673 2.511 0.328 5.135-0.972 7.386l-1.441 2.497-4.618-7.999v-9.236zM73.72 73.72l-15.038 8.682h-17.364l-15.038-8.682-8.682-15.038v-17.364l8.682-15.038 15.038-8.682h17.364l15.038 8.682 8.682 15.038v17.364zM82.401 60.549v8.158l-7.065 4.079zM72.786 75.336l-4.079 7.065h-8.158zM57.065 83.335l-7.065 4.079-7.065-4.079zM39.451 82.401h-8.158l-4.079-7.065zM24.664 72.786l-7.065-4.079v-8.158zM16.665 57.065l-4.079-7.065 4.079-7.065zM17.599 39.451v-8.158l7.065-4.079zM27.214 24.664l4.079-7.065h8.158zM42.935 16.665l7.065-4.079 7.065 4.079zM60.549 17.599h8.158l4.079 7.065zM75.336 27.214l7.065 4.079v8.158zM83.335 42.935l4.079 7.065-4.079 7.065zM72.668 17.599c2.6 0 5.044 1.012 6.883 2.851 1.838 1.838 2.851 4.283 2.851 6.883v2.883l-7.999-4.618-4.618-7.999zM53.43 10.606c2.252-1.3 4.875-1.645 7.386-0.972 2.511 0.673 4.61 2.284 5.91 4.535l1.441 2.497h-9.236l-7.999-4.618zM33.273 14.168c1.3-2.252 3.399-3.862 5.91-4.535 2.511-0.673 5.135-0.328 7.386 0.972l2.497 1.441-7.999 4.618h-9.236zM17.599 27.332c0-2.6 1.012-5.044 2.851-6.883 1.838-1.838 4.283-2.851 6.883-2.851h2.883l-4.618 7.999-7.999 4.618zM10.606 46.57c-1.3-2.252-1.645-4.875-0.972-7.386 0.673-2.511 2.284-4.61 4.535-5.91l2.497-1.441v9.236l-4.618 7.999zM14.168 66.727c-2.252-1.3-3.862-3.399-4.535-5.91-0.673-2.511-0.328-5.135 0.972-7.386l1.441-2.497 4.618 7.999v9.236zM27.332 82.401c-2.6 0-5.044-1.012-6.883-2.851-1.838-1.838-2.851-4.283-2.851-6.883v-2.883l7.999 4.618 4.618 7.999zM46.57 89.394c-2.252 1.3-4.875 1.645-7.386 0.972-2.511-0.673-4.61-2.284-5.91-4.535l-1.441-2.497h9.236l7.999 4.618zM66.727 85.832c-1.3 2.252-3.399 3.862-5.91 4.535-2.511 0.673-5.135 0.328-7.386-0.972l-2.497-1.441 7.999-4.618h9.236zM82.401 72.668c0 2.6-1.012 5.044-2.851 6.883-1.838 1.838-4.283 2.851-6.883 2.851h-2.883l4.618-7.999 7.999-4.618zM90.367 60.816c-0.673 2.511-2.284 4.61-4.535 5.91l-2.497 1.441v-9.236l4.618-7.999 1.441 2.497c1.3 2.253 1.646 4.876 0.973 7.387z" fill="#471aa0" fill-rule="nonzero" stroke="none" stroke-width="1" stroke-linecap="butt" stroke-linejoin="miter" stroke-miterlimit="10" stroke-dasharray="" stroke-dashoffset="0" font-family="none" font-weight="none" font-size="none" text-anchor="none" style="mix-blend-mode: normal" data-fill-palette-color="tertiary"></path></g><g transform="matrix(1,0,0,1,64,148.3907608840724)"><svg viewBox="0 0 192 63.21847823185521" height="63.21847823185521" width="192"><g><svg viewBox="0 0 339.5270505189268 111.79366381435821" height="63.21847823185521" width="192"><g><rect width="4.630034130239304" height="111.79366381435821" x="130.77650819434373" y="0" fill="#471aa0" opacity="1" stroke-width="0" stroke="transparent" fill-opacity="1" class="rect-yte-0" data-fill-palette-color="primary" rx="1%" id="yte-0" data-palette-color="#471aa0"></rect></g><g transform="matrix(1,0,0,1,147.52705051892676,0.27809369108048543)"><svg viewBox="0 0 192 111.23747643219724" height="111.23747643219724" width="192"><g id="textblocktransform"><svg viewBox="0 0 192 111.23747643219724" height="111.23747643219724" width="192" id="textblock"><g><svg viewBox="0 0 192 111.23747643219724" height="111.23747643219724" width="192"><g transform="matrix(1,0,0,1,0,0)"><svg width="192" viewBox="1.4900000000000002 -36.010000000000005 134.67 75.02000000000001" height="111.23747643219724" data-palette-color="#471aa0"><svg></svg><svg></svg><g class="wordmark-text-0" data-fill-palette-color="primary" id="text-0"><path d="M1.76-35.01h6.03l9.35 13.11 9.4-13.11h6.05l-12.4 17.36 12.67 17.65h-6.05l-9.67-13.45-9.6 13.45h-6.05l12.67-17.65zM38.6-26h4.81v26h-4.81zM38.35-31.01v-5h5.3v5zM74.66-21.19v16.38c0 0.667-0.127 1.293-0.38 1.88-0.253 0.587-0.597 1.097-1.03 1.53-0.427 0.427-0.933 0.767-1.52 1.02-0.587 0.253-1.213 0.38-1.88 0.38v0h-13.4c-0.653 0-1.273-0.127-1.86-0.38-0.587-0.253-1.097-0.593-1.53-1.02-0.427-0.433-0.767-0.943-1.02-1.53-0.253-0.587-0.38-1.213-0.38-1.88v0-31.2h4.79v14.6c0.027-0.633 0.17-1.233 0.43-1.8 0.267-0.56 0.613-1.047 1.04-1.46 0.433-0.413 0.933-0.74 1.5-0.98 0.573-0.233 1.183-0.35 1.83-0.35v0h8.6c0.667 0 1.293 0.127 1.88 0.38 0.587 0.253 1.093 0.593 1.52 1.02 0.433 0.433 0.777 0.943 1.03 1.53 0.253 0.587 0.38 1.213 0.38 1.88zM69.85-21.19h-13.4v16.38h13.4zM105.15-21.19v16.38c0 0.667-0.127 1.293-0.38 1.88-0.253 0.587-0.593 1.097-1.02 1.53-0.433 0.427-0.94 0.767-1.52 1.02-0.573 0.253-1.193 0.38-1.86 0.38v0h-12.92c-0.653 0-1.27-0.127-1.85-0.38-0.587-0.253-1.097-0.593-1.53-1.02-0.433-0.433-0.777-0.943-1.03-1.53-0.247-0.587-0.37-1.213-0.37-1.88v0-16.38c0-0.667 0.123-1.293 0.37-1.88 0.253-0.587 0.597-1.097 1.03-1.53 0.433-0.427 0.943-0.767 1.53-1.02 0.58-0.253 1.197-0.38 1.85-0.38v0h12.92c0.667 0 1.287 0.127 1.86 0.38 0.58 0.253 1.087 0.593 1.52 1.02 0.427 0.433 0.767 0.943 1.02 1.53 0.253 0.587 0.38 1.213 0.38 1.88zM100.37-21.19h-12.92v16.38h12.92zM136.16-21.19v21.19h-4.81v-21.19h-13.41v21.19h-4.78v-26h4.78v4.59c0.033-0.633 0.18-1.233 0.44-1.8 0.26-0.56 0.607-1.047 1.04-1.46 0.433-0.413 0.933-0.74 1.5-0.98 0.573-0.233 1.183-0.35 1.83-0.35v0h8.6c0.667 0 1.293 0.127 1.88 0.38 0.587 0.253 1.093 0.593 1.52 1.02 0.433 0.433 0.777 0.943 1.03 1.53 0.253 0.587 0.38 1.213 0.38 1.88z" fill="#471aa0" fill-rule="nonzero" stroke="none" stroke-width="1" stroke-linecap="butt" stroke-linejoin="miter" stroke-miterlimit="10" stroke-dasharray="" stroke-dashoffset="0" font-family="none" font-weight="none" font-size="none" text-anchor="none" style="mix-blend-mode: normal" data-fill-palette-color="primary" opacity="1"></path><path transform="translate(0,39.01)" d="M14.99-35.01h5.01l13.5 35.01h-5.01l-3.1-8.06h-15.8l-3.1 8.06h-5zM17.5-28.49l-6 15.43h11.96zM39.5-35.01h5.01v35.01h-5.01z" fill="#471aa0" fill-rule="nonzero" stroke="none" stroke-width="1" stroke-linecap="butt" stroke-linejoin="miter" stroke-miterlimit="10" stroke-dasharray="" stroke-dashoffset="0" font-family="none" font-weight="none" font-size="none" text-anchor="none" style="mix-blend-mode: normal" data-fill-palette-color="primary" opacity="1"></path></g></svg></g></svg></g></svg></g></svg></g><g transform="matrix(1,0,0,1,0,1.7097797511216086)"><svg viewBox="0 0 118.656 108.374104312115" height="108.374104312115" width="118.656"><g><svg xmlns="http://www.w3.org/2000/svg" xmlns:xlink="http://www.w3.org/1999/xlink" version="1.1" x="0" y="0" viewBox="12.9 33.3 487 444.8" style="enable-background:new 0 0 512 512;" xml:space="preserve" height="108.374104312115" width="118.656" class="icon-icon-0" data-fill-palette-color="accent" id="icon-0"><g fill="#471aa0" data-fill-palette-color="accent"><g fill="#471aa0" data-fill-palette-color="accent"><g fill="#471aa0" data-fill-palette-color="accent"><g fill="#471aa0" data-fill-palette-color="accent"><g fill="#471aa0" data-fill-palette-color="accent"><path d="M59.7 478.1C57.5 478.1 55.7 476.3 55.7 474.1V362.8C55.7 360.6 57.5 358.8 59.7 358.8 92.9 358.8 120.1 368 136.2 384.6 146 394.7 151.1 407.2 150.7 419.9 149.8 447.9 120.9 478.1 59.7 478.1M63.7 366.8V470C116.8 468.8 141.9 443.3 142.7 419.6 143.1 409 138.8 398.8 130.5 390.2 116.5 375.7 92.9 367.5 63.7 366.8" fill="#471aa0" data-fill-palette-color="accent"></path></g><g fill="#471aa0" data-fill-palette-color="accent"><path d="M414.1 193.4C402.1 193.4 392.4 183.6 392.4 171.7 392.4 159.7 402.2 150 414.1 150 426.1 150 435.8 159.7 435.8 171.7 435.7 183.6 426 193.4 414.1 193.4M414.1 157.9C406.5 157.9 400.4 164 400.4 171.6S406.6 185.3 414.1 185.3 427.8 179.1 427.8 171.6C427.7 164.1 421.6 157.9 414.1 157.9" fill="#471aa0" data-fill-palette-color="accent"></path></g><g fill="#471aa0" data-fill-palette-color="accent"><path d="M313.7 183.7C301.7 183.7 292 174 292 162S301.7 140.3 313.7 140.3C315.4 140.3 317 140.5 318.4 140.8 328.3 143 335.4 151.9 335.4 162 335.4 164.1 335.1 166.3 334.5 168.4 331.6 177.5 323.2 183.7 313.7 183.7M313.7 148.2C306.1 148.2 300 154.4 300 161.9S306.2 175.6 313.7 175.6C319.7 175.6 325 171.7 326.8 166 327.2 164.7 327.4 163.3 327.4 162 327.4 155.6 322.9 150 316.6 148.6H316.5C315.7 148.3 314.8 148.2 313.7 148.2" fill="#471aa0" data-fill-palette-color="accent"></path></g><g fill="#471aa0" data-fill-palette-color="accent"><path d="M226.7 183.8C211.8 183.8 199.7 171.7 199.7 156.8S211.8 129.8 226.7 129.8C241.5 129.8 253.6 141.9 253.6 156.8S241.5 183.8 226.7 183.8M226.7 137.9C216.2 137.9 207.7 146.4 207.7 156.9S216.2 175.9 226.7 175.9C237.1 175.9 245.6 167.4 245.6 156.9S237.1 137.9 226.7 137.9" fill="#471aa0" data-fill-palette-color="accent"></path></g><g fill="#471aa0" data-fill-palette-color="accent"><path d="M346.8 247.2C331.9 247.2 319.8 235.1 319.8 220.2S331.9 193.2 346.8 193.2C361.6 193.2 373.7 205.3 373.7 220.2S361.6 247.2 346.8 247.2M346.8 201.2C336.3 201.2 327.8 209.7 327.8 220.2S336.3 239.2 346.8 239.2C357.2 239.2 365.7 230.7 365.7 220.2S357.2 201.2 346.8 201.2" fill="#471aa0" data-fill-palette-color="accent"></path></g><g fill="#471aa0" data-fill-palette-color="accent"><path d="M149.2 222.4C134.3 222.4 122.2 210.3 122.2 195.4S134.3 168.4 149.2 168.4 176.2 180.5 176.2 195.4 164 222.4 149.2 222.4M149.2 176.4C138.7 176.4 130.2 184.9 130.2 195.4S138.7 214.4 149.2 214.4 168.2 205.9 168.2 195.4 159.6 176.4 149.2 176.4" fill="#471aa0" data-fill-palette-color="accent"></path></g><g fill="#471aa0" data-fill-palette-color="accent"><path d="M352.6 172.1H352.4L330.5 171.2C329.3 171.1 328.1 170.5 327.4 169.5S326.5 167.2 326.8 166C327.2 164.6 327.4 163.2 327.4 161.9 327.4 155.5 322.9 149.9 316.6 148.5 315.6 148.3 314.6 147.6 314.1 146.7 313.6 145.9 313.4 144.9 313.6 143.9 313.8 111.5 340.3 85.1 372.7 85.1 377.1 85.1 381.6 85.6 385.9 86.6 403.6 90.7 418.7 102.9 426.3 119.4 426.6 120 426.7 120.6 426.7 121.3L426.6 122.7C426.5 123.8 426 124.9 425.2 125.6 424.3 126.3 423.2 126.6 422.1 126.5H421.4C393 126.5 367.4 143.5 356.3 169.7 355.6 171.2 354.2 172.1 352.6 172.1M335.4 163.4L350 164C362.3 137.6 387.9 120.2 416.8 118.6 409.7 106.5 397.8 97.7 384.1 94.5 380.3 93.6 376.6 93.2 372.7 93.2 345.4 93.2 323 114.7 321.7 141.7 329.9 144.9 335.5 153 335.5 161.9 335.4 162.5 335.4 162.9 335.4 163.4" fill="#471aa0" data-fill-palette-color="accent"></path></g><g fill="#471aa0" data-fill-palette-color="accent"><path d="M431.7 296H102.7C67.5 296 39 267.4 39 232.2 39 224.9 40.3 217.4 42.9 210.4 37.4 201.3 34.5 190.9 34.5 180.1 34.5 154.9 50.1 132.8 73.7 124.4 74.4 104.9 82.6 87.5 96.8 75.1 111 62.8 130.6 56 152.1 56 159.3 56 166.4 57 173.1 58.9L173.5 57.8C173.7 57.2 174 56.6 174.5 56.2 189.2 42 208.6 34.1 229.2 34.1 249.6 34.1 269.3 42.2 283.9 56.4 295.6 49.8 308.9 46.3 322.4 46.3 350.2 46.3 375.4 60.6 389.8 84.4 390.4 85.3 390.5 86.4 390.2 87.5L388.9 92.4C388.3 94.5 386.2 95.7 384.1 95.3 380.3 94.4 376.6 94 372.7 94 344.5 94 321.6 117 321.6 145.2 321.6 145.5 321.6 145.8 321.5 146.1L321.4 146.3C321.1 147.3 320.5 148.2 319.6 148.8S317.6 149.5 316.5 149.2C315.7 149 314.8 148.9 313.7 148.9 306.1 148.9 300 155.1 300 162.6S306.2 176.3 313.7 176.3C319.7 176.3 325 172.4 326.8 166.6 327.3 164.9 328.9 163.7 330.8 163.8L350 164.6C362.9 136.8 390.6 119.1 421.3 119.1 421.7 119.1 422.3 119.1 422.8 119.2 465.3 119.9 499.9 155.2 499.9 197.8 499.9 207.2 498.3 216.4 495 225.1 495.3 227.3 495.4 229.6 495.4 232 495.4 248.9 488.8 265 476.7 277.1 464.7 289.3 448.7 296 431.7 296M152.1 64C110.6 64 81.6 90 81.6 127.3 81.6 129.1 80.5 130.7 78.8 131.2 57.1 137.8 42.5 157.5 42.5 180.2 42.5 190 45.3 199.6 50.7 207.8 51.4 208.9 51.5 210.3 51.1 211.5 48.5 218 47.1 225.2 47.1 232.2 47.1 263 72.1 288 102.8 288H431.9C446.7 288 460.7 282.2 471.3 271.6S487.7 247 487.7 232.2C487.7 229.5 487.5 227 487.2 224.7 487 223.6 487.3 222.6 487.9 221.7 488 221.5 488.1 221.4 488.3 221.3 490.9 213.8 492.2 206 492.2 198 492.2 159.6 461 127.9 422.7 127.4H421.5C393.1 127.4 367.5 144.4 356.4 170.6 355.7 172.1 354.2 173.1 352.6 173L333.5 172.2C329.9 179.7 322.4 184.5 313.9 184.5 301.9 184.5 292.2 174.8 292.2 162.8S301.9 141.1 313.9 141.1C316 110.4 341.7 86.1 372.9 86.1 375.9 86.1 379 86.3 382 86.8 368.9 66.4 346.9 54.4 322.6 54.4 309.9 54.4 297.5 57.8 286.7 64.2L286.4 64.5C285.6 65.3 284.6 65.7 283.6 65.7H283.5C282.4 65.7 281.4 65.2 280.6 64.4 267.3 50.3 248.6 42.2 229.3 42.2 211.1 42.2 194 49 180.9 61.3L179.6 65.2C179.3 66.2 178.5 67 177.6 67.5S175.5 68 174.5 67.7C167.3 65.2 159.8 64 152.1 64M346.8 247.9C331.9 247.9 319.8 235.8 319.8 220.9S331.9 193.9 346.8 193.9C361.6 193.9 373.7 206 373.7 220.9S361.6 247.9 346.8 247.9M346.8 201.9C336.3 201.9 327.8 210.4 327.8 220.9S336.3 239.9 346.8 239.9C357.2 239.9 365.7 231.4 365.7 220.9 365.7 210.5 357.2 201.9 346.8 201.9M149.2 223.2C134.3 223.2 122.2 211.1 122.2 196.2S134.3 169.2 149.2 169.2 176.2 181.3 176.2 196.2 164 223.2 149.2 223.2M149.2 177.2C138.7 177.2 130.2 185.7 130.2 196.2S138.7 215.2 149.2 215.2 168.2 206.7 168.2 196.2 159.6 177.2 149.2 177.2M414.1 194.1C402.1 194.1 392.4 184.3 392.4 172.4 392.4 160.4 402.2 150.7 414.1 150.7 426.1 150.7 435.8 160.4 435.8 172.4 435.7 184.4 426 194.1 414.1 194.1M414.1 158.7C406.5 158.7 400.4 164.8 400.4 172.4S406.6 186.1 414.1 186.1 427.8 179.9 427.8 172.4C427.7 164.8 421.6 158.7 414.1 158.7M226.7 184.6C211.8 184.6 199.7 172.5 199.7 157.6S211.8 130.6 226.7 130.6C241.5 130.6 253.6 142.7 253.6 157.6S241.5 184.6 226.7 184.6M226.7 138.7C216.2 138.7 207.7 147.2 207.7 157.7S216.2 176.7 226.7 176.7C237.1 176.7 245.6 168.2 245.6 157.7S237.1 138.7 226.7 138.7" fill="#471aa0" data-fill-palette-color="accent"></path></g></g><g fill="#471aa0" data-fill-palette-color="accent"><g fill="#471aa0" data-fill-palette-color="accent"><path d="M102.7 295.2C67.5 295.2 39 266.6 39 231.4 39 224.1 40.3 216.6 42.9 209.6 37.4 200.5 34.5 190.1 34.5 179.3 34.5 153.1 51.4 130.3 76.5 122.7 82.2 121 88 120.2 93.8 120.2 123.2 120.2 148.4 142.1 152.4 171 152.7 173.2 151.2 175.2 149 175.5S144.8 174.3 144.5 172.1C141 147 119.2 128.2 93.8 128.2 88.8 128.2 83.7 128.9 78.8 130.4 57.1 137 42.5 156.7 42.5 179.4 42.5 189.2 45.3 198.8 50.7 207 51.4 208.1 51.5 209.5 51.1 210.7 48.5 217.3 47.1 224.4 47.1 231.4 47.1 262.2 72.1 287.2 102.8 287.2 105 287.2 106.8 289 106.8 291.2S104.9 295.2 102.7 295.2" fill="#471aa0" data-fill-palette-color="accent"></path></g><g fill="#471aa0" data-fill-palette-color="accent"><path d="M431.7 295.2C429.5 295.2 427.7 293.4 427.7 291.2S429.5 287.2 431.7 287.2C446.5 287.2 460.5 281.4 471.1 270.8S487.5 246.2 487.5 231.4C487.5 228.7 487.3 226.2 487 223.9 483.2 196.3 459.5 175.6 431.8 175.6 429.6 175.6 427.8 173.8 427.8 171.6S429.6 167.6 431.8 167.6C463.5 167.6 490.6 191.3 494.9 222.7 495.3 225.4 495.5 228.2 495.5 231.4 495.5 248.3 488.9 264.4 476.8 276.5S448.7 295.2 431.7 295.2" fill="#471aa0" data-fill-palette-color="accent"></path></g><g fill="#471aa0" data-fill-palette-color="accent"><path d="M226.7 137.9C224.5 137.9 222.7 136.1 222.7 133.9 222.7 103.4 203.3 76.5 174.3 66.9 167.2 64.5 159.7 63.3 152 63.3 110.5 63.3 81.5 89.3 81.5 126.6 81.5 128.8 79.7 130.6 77.5 130.6S73.5 128.8 73.5 126.6C73.5 105.9 81.7 87.4 96.7 74.5 111 62 130.6 55.2 152.1 55.2 160.7 55.2 169.1 56.6 177 59.3 209.2 70 230.8 100 230.8 133.9 230.7 136.1 228.9 137.9 226.7 137.9" fill="#471aa0" data-fill-palette-color="accent"></path></g><g fill="#471aa0" data-fill-palette-color="accent"><path d="M303.7 116C301.5 116 299.7 114.2 299.7 112 299.7 93.9 292.8 76.7 280.4 63.6 267.1 49.5 248.4 41.4 229.1 41.4 210.7 41.4 193.2 48.4 180.1 61.1L178.9 62.3C178.5 62.8 178 63.2 177.6 63.7 176.1 65.3 173.6 65.4 171.9 63.9 170.3 62.4 170.2 59.9 171.7 58.2 172.2 57.7 172.6 57.2 173.1 56.7L174.3 55.5 174.4 55.4C189.1 41.2 208.5 33.3 229.1 33.3 250.6 33.3 271.5 42.3 286.2 58 300 72.6 307.7 91.8 307.7 111.9 307.7 114.2 305.9 116 303.7 116" fill="#471aa0" data-fill-palette-color="accent"></path></g><g fill="#471aa0" data-fill-palette-color="accent"><path d="M388.7 94.1C387.3 94.1 385.9 93.3 385.2 92 384.4 90.5 383.7 89.1 382.9 87.8 369.9 66.3 347.3 53.5 322.3 53.5 309.5 53.5 296.9 57 286 63.6 284.1 64.7 281.6 64.1 280.5 62.2S280 57.9 281.9 56.7C294 49.4 308 45.5 322.3 45.5 350.1 45.5 375.3 59.8 389.7 83.6 390.6 85.1 391.5 86.7 392.3 88.2 393.3 90.2 392.6 92.6 390.6 93.6 390 94 389.4 94.1 388.7 94.1" fill="#471aa0" data-fill-palette-color="accent"></path></g><g fill="#471aa0" data-fill-palette-color="accent"><path d="M491.3 227.2C490.8 227.2 490.4 227.1 489.9 226.9 487.8 226.1 486.8 223.8 487.5 221.8 490.4 213.9 491.9 205.6 491.9 197.2 491.9 158.8 460.7 127.1 422.4 126.6H421.2C392.8 126.6 367.2 143.6 356.1 169.8 352.4 178.5 350.6 187.8 350.6 197.3 350.6 199.5 348.8 201.3 346.6 201.3S342.6 199.5 342.6 197.3C342.6 186.7 344.7 176.4 348.7 166.7 361.1 137.5 389.5 118.6 421.2 118.6 421.6 118.6 422.2 118.6 422.7 118.7 465.2 119.4 499.8 154.7 499.8 197.3 499.8 206.7 498.1 215.9 494.9 224.7 494.5 226.2 492.9 227.2 491.3 227.2" fill="#471aa0" data-fill-palette-color="accent"></path></g><g fill="#471aa0" data-fill-palette-color="accent"><path d="M317.5 148.4C315.3 148.4 313.5 146.6 313.5 144.4 313.5 111.8 340 85.2 372.6 85.2 377 85.2 381.5 85.7 385.8 86.7 403.5 90.8 418.6 103 426.2 119.5 427.1 121.5 426.3 123.9 424.2 124.8 422.2 125.7 419.8 124.9 418.9 122.8 412.3 108.6 399.3 98 383.9 94.5 380.1 93.6 376.4 93.2 372.5 93.2 344.3 93.2 321.4 116.2 321.4 144.4 321.5 146.6 319.7 148.4 317.5 148.4" fill="#471aa0" data-fill-palette-color="accent"></path></g><g fill="#471aa0" data-fill-palette-color="accent"><path d="M436.9 295.2H104C101.8 295.2 100 293.4 100 291.2S101.8 287.2 104 287.2H436.9C439.1 287.2 440.9 289 440.9 291.2S439.1 295.2 436.9 295.2" fill="#471aa0" data-fill-palette-color="accent"></path></g><g fill="#471aa0" data-fill-palette-color="accent"><path d="M149.2 222.4C134.3 222.4 122.2 210.3 122.2 195.4S134.3 168.4 149.2 168.4 176.2 180.5 176.2 195.4 164 222.4 149.2 222.4M149.2 176.4C138.7 176.4 130.2 184.9 130.2 195.4S138.7 214.4 149.2 214.4 168.2 205.9 168.2 195.4 159.6 176.4 149.2 176.4" fill="#471aa0" data-fill-palette-color="accent"></path></g><g fill="#471aa0" data-fill-palette-color="accent"><path d="M226.7 183.8C211.8 183.8 199.7 171.7 199.7 156.8S211.8 129.8 226.7 129.8C241.5 129.8 253.6 141.9 253.6 156.8S241.5 183.8 226.7 183.8M226.7 137.9C216.2 137.9 207.7 146.4 207.7 156.9S216.2 175.9 226.7 175.9C237.1 175.9 245.6 167.4 245.6 156.9S237.1 137.9 226.7 137.9" fill="#471aa0" data-fill-palette-color="accent"></path></g><g fill="#471aa0" data-fill-palette-color="accent"><path d="M346.8 247.2C331.9 247.2 319.8 235.1 319.8 220.2S331.9 193.2 346.8 193.2C361.6 193.2 373.7 205.3 373.7 220.2S361.6 247.2 346.8 247.2M346.8 201.2C336.3 201.2 327.8 209.7 327.8 220.2S336.3 239.2 346.8 239.2C357.2 239.2 365.7 230.7 365.7 220.2S357.2 201.2 346.8 201.2" fill="#471aa0" data-fill-palette-color="accent"></path></g><g fill="#471aa0" data-fill-palette-color="accent"><path d="M313.7 183.7C301.7 183.7 292 174 292 162S301.7 140.3 313.7 140.3C315.4 140.3 317 140.5 318.4 140.8 328.3 143 335.4 151.9 335.4 162 335.4 164.1 335.1 166.3 334.5 168.4 331.6 177.5 323.2 183.7 313.7 183.7M313.7 148.2C306.1 148.2 300 154.4 300 161.9S306.2 175.6 313.7 175.6C319.7 175.6 325 171.7 326.8 166 327.2 164.7 327.4 163.3 327.4 162 327.4 155.6 322.9 150 316.6 148.6H316.5C315.7 148.3 314.8 148.2 313.7 148.2" fill="#471aa0" data-fill-palette-color="accent"></path></g><g fill="#471aa0" data-fill-palette-color="accent"><path d="M414.1 193.4C402.1 193.4 392.4 183.6 392.4 171.7 392.4 159.7 402.2 150 414.1 150 426.1 150 435.8 159.7 435.8 171.7 435.7 183.6 426 193.4 414.1 193.4M414.1 157.9C406.5 157.9 400.4 164 400.4 171.6S406.6 185.3 414.1 185.3 427.8 179.1 427.8 171.6C427.7 164.1 421.6 157.9 414.1 157.9" fill="#471aa0" data-fill-palette-color="accent"></path></g><g fill="#471aa0" data-fill-palette-color="accent"><path d="M392.8 423.7H146.7C144.5 423.7 142.7 421.9 142.7 419.7S144.5 415.7 146.7 415.7H392.8C410.8 415.7 425.5 401 425.5 383S410.8 350.3 392.8 350.3H270.5C268.3 350.3 266.5 348.5 266.5 346.3S268.3 342.3 270.5 342.3H392.8C415.2 342.3 433.5 360.6 433.5 383 433.5 405.5 415.2 423.7 392.8 423.7" fill="#471aa0" data-fill-palette-color="accent"></path></g><g fill="#471aa0" data-fill-palette-color="accent"><path d="M270.5 350.4C268.3 350.4 266.5 348.6 266.5 346.4V291.3C266.5 289.1 268.3 287.3 270.5 287.3S274.5 289.1 274.5 291.3V346.4C274.5 348.6 272.7 350.4 270.5 350.4" fill="#471aa0" data-fill-palette-color="accent"></path></g><g fill="#471aa0" data-fill-palette-color="accent"><path d="M59.7 478.1C57.5 478.1 55.7 476.3 55.7 474.1V362.8C55.7 360.6 57.5 358.8 59.7 358.8 92.9 358.8 120.1 368 136.2 384.6 146 394.7 151.1 407.2 150.7 419.9 149.8 447.9 120.9 478.1 59.7 478.1M63.7 366.8V470C116.8 468.8 141.9 443.3 142.7 419.6 143.1 409 138.8 398.8 130.5 390.2 116.5 375.7 92.9 367.5 63.7 366.8" fill="#471aa0" data-fill-palette-color="accent"></path></g><g fill="#471aa0" data-fill-palette-color="accent"><path d="M59.7 397.1H16.9C14.7 397.1 12.9 395.3 12.9 393.1S14.7 389.1 16.9 389.1H59.7C61.9 389.1 63.7 390.9 63.7 393.1S61.9 397.1 59.7 397.1" fill="#471aa0" data-fill-palette-color="accent"></path></g><g fill="#471aa0" data-fill-palette-color="accent"><path d="M59.7 447.8H16.9C14.7 447.8 12.9 446 12.9 443.8S14.7 439.8 16.9 439.8H59.7C61.9 439.8 63.7 441.6 63.7 443.8S61.9 447.8 59.7 447.8" fill="#471aa0" data-fill-palette-color="accent"></path></g><g fill="#471aa0" data-fill-palette-color="accent"><path d="M87.6 436.4C85.4 436.4 83.6 434.6 83.6 432.4V400.2C83.6 398 85.4 396.2 87.6 396.2S91.6 398 91.6 400.2V432.4C91.6 434.6 89.8 436.4 87.6 436.4" fill="#471aa0" data-fill-palette-color="accent"></path></g><g fill="#471aa0" data-fill-palette-color="accent"><path d="M110.6 429.8C108.4 429.8 106.6 428 106.6 425.8V406.8C106.6 404.6 108.4 402.8 110.6 402.8S114.6 404.6 114.6 406.8V425.8C114.6 428 112.8 429.8 110.6 429.8" fill="#471aa0" data-fill-palette-color="accent"></path></g></g></g></g></g></svg></g></svg></g></svg></g></svg></g></svg></g><defs></defs></svg><rect width="320" height="360" fill="none" stroke="none" visibility="hidden"></rect></g></svg></g></svg>